<svg width="16" height="16" viewBox="0 0 16 16" fill="none" xmlns="http://www.w3.org/2000/svg">
<path d="M5.27999 4.16C4.6151 4.16 4.1533 4.45306 3.88999 4.74563C3.62669 5.03819 3.53374 5.34812 3.53374 5.34812C3.51956 5.38892 3.51378 5.43216 3.51676 5.47525C3.51973 5.51834 3.53139 5.56037 3.55104 5.59883C3.57069 5.63729 3.59793 5.67138 3.6311 5.69903C3.66427 5.72669 3.7027 5.74734 3.74407 5.75975C3.78544 5.77216 3.82889 5.77607 3.87181 5.77125C3.91472 5.76642 3.95622 5.75295 3.9938 5.73166C4.03137 5.71037 4.06425 5.68169 4.09045 5.64736C4.11665 5.61302 4.13563 5.57374 4.14624 5.53187C4.14624 5.53187 4.19693 5.36181 4.36562 5.17438C4.53431 4.98694 4.79288 4.8 5.27999 4.8C5.7671 4.8 6.02568 4.98694 6.19437 5.17438C6.36306 5.36181 6.41374 5.53187 6.41374 5.53187C6.42436 5.57374 6.44334 5.61302 6.46954 5.64736C6.49574 5.68169 6.52861 5.71037 6.56619 5.73166C6.60377 5.75295 6.64526 5.76642 6.68818 5.77125C6.7311 5.77607 6.77455 5.77216 6.81592 5.75975C6.85729 5.74734 6.89572 5.72669 6.92889 5.69903C6.96206 5.67138 6.98929 5.63729 7.00895 5.59883C7.0286 5.56037 7.04026 5.51834 7.04323 5.47525C7.04621 5.43216 7.04043 5.38892 7.02624 5.34812C7.02624 5.34812 6.9333 5.03819 6.66999 4.74563C6.40669 4.45306 5.94488 4.16 5.27999 4.16ZM10.72 4.16C10.0551 4.16 9.5933 4.45306 9.32999 4.74563C9.06669 5.03819 8.97374 5.34812 8.97374 5.34812C8.95956 5.38892 8.95378 5.43216 8.95676 5.47525C8.95973 5.51834 8.97139 5.56037 8.99104 5.59883C9.01069 5.63729 9.03793 5.67138 9.0711 5.69903C9.10427 5.72669 9.1427 5.74734 9.18407 5.75975C9.22544 5.77216 9.26889 5.77607 9.31181 5.77125C9.35472 5.76642 9.39622 5.75295 9.4338 5.73166C9.47137 5.71037 9.50425 5.68169 9.53045 5.64736C9.55665 5.61302 9.57563 5.57374 9.58624 5.53187C9.58624 5.53187 9.63693 5.36181 9.80562 5.17438C9.97431 4.98694 10.2329 4.8 10.72 4.8C11.2071 4.8 11.4657 4.98694 11.6344 5.17438C11.8031 5.36181 11.8537 5.53187 11.8537 5.53187C11.8644 5.57374 11.8833 5.61302 11.9095 5.64736C11.9357 5.68169 11.9686 5.71037 12.0062 5.73166C12.0438 5.75295 12.0853 5.76642 12.1282 5.77125C12.1711 5.77607 12.2146 5.77216 12.2559 5.75975C12.2973 5.74734 12.3357 5.72669 12.3689 5.69903C12.4021 5.67138 12.4293 5.63729 12.4489 5.59883C12.4686 5.56037 12.4803 5.51834 12.4832 5.47525C12.4862 5.43216 12.4804 5.38892 12.4662 5.34812C12.4662 5.34812 12.3733 5.03819 12.11 4.74563C11.8467 4.45306 11.3849 4.16 10.72 4.16Z" fill="#FBDCD2"/>
<path fill-rule="evenodd" clip-rule="evenodd" d="M14.08 8C14.08 11.3579 11.3579 14.08 8 14.08C4.64211 14.08 1.92 11.3579 1.92 8C1.92 4.64211 4.64211 1.92 8 1.92C11.3579 1.92 14.08 4.64211 14.08 8ZM3.88999 4.74563C4.1533 4.45306 4.6151 4.16 5.27999 4.16C5.94488 4.16 6.40669 4.45306 6.66999 4.74563C6.9333 5.03819 7.02624 5.34812 7.02624 5.34812C7.04043 5.38892 7.04621 5.43216 7.04323 5.47525C7.04026 5.51834 7.0286 5.56037 7.00895 5.59883C6.98929 5.63729 6.96206 5.67138 6.92889 5.69903C6.89572 5.72669 6.85729 5.74734 6.81592 5.75975C6.77455 5.77216 6.7311 5.77607 6.68818 5.77125C6.64526 5.76642 6.60377 5.75295 6.56619 5.73166C6.52861 5.71037 6.49574 5.68169 6.46954 5.64736C6.44334 5.61302 6.42436 5.57374 6.41374 5.53187C6.41374 5.53187 6.36306 5.36181 6.19437 5.17438C6.02568 4.98694 5.7671 4.8 5.27999 4.8C4.79288 4.8 4.53431 4.98694 4.36562 5.17438C4.19693 5.36181 4.14624 5.53187 4.14624 5.53187C4.13563 5.57374 4.11665 5.61302 4.09045 5.64736C4.06425 5.68169 4.03137 5.71037 3.9938 5.73166C3.95622 5.75295 3.91472 5.76642 3.87181 5.77125C3.82889 5.77607 3.78544 5.77216 3.74407 5.75975C3.7027 5.74734 3.66427 5.72669 3.6311 5.69903C3.59793 5.67138 3.57069 5.63729 3.55104 5.59883C3.53139 5.56037 3.51973 5.51834 3.51676 5.47525C3.51378 5.43216 3.51956 5.38892 3.53374 5.34812C3.53374 5.34812 3.62669 5.03819 3.88999 4.74563ZM9.32999 4.74563C9.5933 4.45306 10.0551 4.16 10.72 4.16C11.3849 4.16 11.8467 4.45306 12.11 4.74563C12.3733 5.03819 12.4662 5.34812 12.4662 5.34812C12.4804 5.38892 12.4862 5.43216 12.4832 5.47525C12.4803 5.51834 12.4686 5.56037 12.4489 5.59883C12.4293 5.63729 12.4021 5.67138 12.3689 5.69903C12.3357 5.72669 12.2973 5.74734 12.2559 5.75975C12.2146 5.77216 12.1711 5.77607 12.1282 5.77125C12.0853 5.76642 12.0438 5.75295 12.0062 5.73166C11.9686 5.71037 11.9357 5.68169 11.9095 5.64736C11.8833 5.61302 11.8644 5.57374 11.8537 5.53187C11.8537 5.53187 11.8031 5.36181 11.6344 5.17438C11.4657 4.98694 11.2071 4.8 10.72 4.8C10.2329 4.8 9.97431 4.98694 9.80562 5.17438C9.63693 5.36181 9.58624 5.53187 9.58624 5.53187C9.57563 5.57374 9.55665 5.61302 9.53045 5.64736C9.50425 5.68169 9.47137 5.71037 9.4338 5.73166C9.39622 5.75295 9.35472 5.76642 9.31181 5.77125C9.26889 5.77607 9.22544 5.77216 9.18407 5.75975C9.1427 5.74734 9.10427 5.72669 9.0711 5.69903C9.03793 5.67138 9.01069 5.63729 8.99104 5.59883C8.97139 5.56037 8.95973 5.51834 8.95676 5.47525C8.95378 5.43216 8.95956 5.38892 8.97374 5.34812C8.97374 5.34812 9.06669 5.03819 9.32999 4.74563Z" fill="#FBDCD2"/>
<path fill-rule="evenodd" clip-rule="evenodd" d="M8.00001 14.08C11.3579 14.08 14.08 11.3579 14.08 8C14.08 4.64211 11.3579 1.92 8.00001 1.92C4.64212 1.92 1.92001 4.64211 1.92001 8C1.92001 11.3579 4.64212 14.08 8.00001 14.08ZM8.00001 14.72C11.7114 14.72 14.72 11.7114 14.72 8C14.72 4.28865 11.7114 1.28 8.00001 1.28C4.28865 1.28 1.28001 4.28865 1.28001 8C1.28001 11.7114 4.28865 14.72 8.00001 14.72Z" fill="#4F4F4F"/>
<path fill-rule="evenodd" clip-rule="evenodd" d="M4.25374 7.26532C4.31375 7.20531 4.39513 7.17159 4.48 7.17158H11.52C11.6049 7.17159 11.6863 7.20531 11.7463 7.26532C11.8063 7.32533 11.84 7.40672 11.84 7.49158C11.84 8.82492 11.5126 9.90965 10.8769 11.0116C10.2411 12.1135 9.25714 12.9316 8 12.9316C6.74286 12.9316 5.75886 12.1135 5.12312 11.0116C4.48739 9.90965 4.16 8.82492 4.16 7.49158C4.16001 7.40672 4.19373 7.32533 4.25374 7.26532ZM4.83937 7.81158H11.1606C11.1324 8.46405 11.0297 9.02436 10.8491 9.55314C10.1384 9.20921 9.12491 8.99411 8 8.99411C6.8751 8.99411 5.86163 9.20921 5.15094 9.55314C4.97027 9.02437 4.86759 8.46405 4.83937 7.81158ZM5.39186 10.1477C5.47691 10.3292 5.57186 10.5096 5.67687 10.6916C6.24114 11.6696 7.01714 12.2916 8 12.2916C8.98286 12.2916 9.75886 11.6696 10.3231 10.6916C10.4281 10.5096 10.5231 10.3291 10.6081 10.1477C10.5708 10.1291 10.5313 10.1104 10.4897 10.0916C9.88544 9.81919 9.00579 9.63411 8 9.63411C6.99422 9.63411 6.11456 9.81919 5.51033 10.0916C5.46866 10.1104 5.42921 10.1291 5.39186 10.1477Z" fill="#4F4F4F"/>
<path d="M11.1606 7.81158H4.83938C4.86759 8.46405 4.97027 9.02437 5.15094 9.55314C5.86163 9.20921 6.8751 8.99411 8 8.99411C9.12491 8.99411 10.1384 9.20921 10.8491 9.55314C11.0297 9.02436 11.1324 8.46405 11.1606 7.81158Z" fill="#F4BACB"/>
<path d="M5.39186 10.1477C5.4769 10.3292 5.57185 10.5096 5.67687 10.6916C6.24113 11.6696 7.01713 12.2916 7.99999 12.2916C8.98285 12.2916 9.75885 11.6696 10.3231 10.6916C10.4281 10.5096 10.5231 10.3291 10.6081 10.1477C10.5708 10.1291 10.5313 10.1104 10.4897 10.0916C9.88543 9.81919 9.00578 9.63411 7.99999 9.63411C6.99421 9.63411 6.11455 9.81919 5.51032 10.0916C5.46865 10.1104 5.4292 10.1291 5.39186 10.1477Z" fill="#ED8FAA"/>
<path d="M5.27999 4.48C4.6151 4.48 4.1533 4.77306 3.88999 5.06563C3.62669 5.35819 3.53374 5.66812 3.53374 5.66812C3.51956 5.70892 3.51378 5.75216 3.51676 5.79525C3.51973 5.83834 3.53139 5.88037 3.55104 5.91883C3.57069 5.95729 3.59793 5.99138 3.6311 6.01903C3.66427 6.04669 3.7027 6.06734 3.74407 6.07975C3.78544 6.09216 3.82889 6.09607 3.87181 6.09125C3.91472 6.08642 3.95622 6.07295 3.9938 6.05166C4.03137 6.03037 4.06425 6.00169 4.09045 5.96736C4.11665 5.93302 4.13563 5.89374 4.14624 5.85187C4.14624 5.85187 4.19693 5.68181 4.36562 5.49437C4.53431 5.30694 4.79288 5.12 5.27999 5.12C5.7671 5.12 6.02568 5.30694 6.19437 5.49437C6.36306 5.68181 6.41374 5.85187 6.41374 5.85187C6.42436 5.89374 6.44334 5.93302 6.46954 5.96736C6.49574 6.00169 6.52861 6.03037 6.56619 6.05166C6.60377 6.07295 6.64526 6.08642 6.68818 6.09125C6.7311 6.09607 6.77455 6.09216 6.81592 6.07975C6.85729 6.06734 6.89572 6.04669 6.92889 6.01903C6.96206 5.99138 6.98929 5.95729 7.00895 5.91883C7.0286 5.88037 7.04026 5.83834 7.04323 5.79525C7.04621 5.75216 7.04043 5.70892 7.02624 5.66812C7.02624 5.66812 6.9333 5.35819 6.66999 5.06563C6.40669 4.77306 5.94488 4.48 5.27999 4.48ZM10.72 4.48C10.0551 4.48 9.5933 4.77306 9.32999 5.06563C9.06669 5.35819 8.97374 5.66812 8.97374 5.66812C8.95956 5.70892 8.95378 5.75216 8.95676 5.79525C8.95973 5.83834 8.97139 5.88037 8.99104 5.91883C9.01069 5.95729 9.03793 5.99138 9.0711 6.01903C9.10427 6.04669 9.1427 6.06734 9.18407 6.07975C9.22544 6.09216 9.26889 6.09607 9.31181 6.09125C9.35472 6.08642 9.39622 6.07295 9.4338 6.05166C9.47137 6.03037 9.50425 6.00169 9.53045 5.96736C9.55665 5.93302 9.57563 5.89374 9.58624 5.85187C9.58624 5.85187 9.63693 5.68181 9.80562 5.49437C9.97431 5.30694 10.2329 5.12 10.72 5.12C11.2071 5.12 11.4657 5.30694 11.6344 5.49437C11.8031 5.68181 11.8537 5.85187 11.8537 5.85187C11.8644 5.89374 11.8833 5.93302 11.9095 5.96736C11.9357 6.00169 11.9686 6.03037 12.0062 6.05166C12.0438 6.07295 12.0853 6.08642 12.1282 6.09125C12.1711 6.09607 12.2146 6.09216 12.2559 6.07975C12.2973 6.06734 12.3357 6.04669 12.3689 6.01903C12.4021 5.99138 12.4293 5.95729 12.4489 5.91883C12.4686 5.88037 12.4803 5.83834 12.4832 5.79525C12.4862 5.75216 12.4804 5.70892 12.4662 5.66812C12.4662 5.66812 12.3733 5.35819 12.11 5.06563C11.8467 4.77306 11.3849 4.48 10.72 4.48Z" fill="#4F4F4F"/>
</svg>
