<svg width="16" height="16" viewBox="0 0 16 16" fill="none" xmlns="http://www.w3.org/2000/svg">
<path d="M7.36 0.96C7.18375 0.96 7.04 1.10375 7.04 1.28V3.76L5.44 6.96V6.4C5.44 6.22375 5.29625 6.08 5.12 6.08H0.96C0.86875 6.08 0.78125 6.12125 0.72 6.19C0.65875 6.25875 0.62875 6.34875 0.64 6.44L1.6 14.12C1.62 14.28 1.75875 14.4 1.92 14.4H5.12C5.29625 14.4 5.44 14.2575 5.44 14.08V13.76H5.81C5.9425 14.1325 6.3025 14.4 6.72 14.4H12.8C13.5062 14.4 14.08 13.8262 14.08 13.12C14.08 12.8562 13.9962 12.6137 13.86 12.41C14.3587 12.235 14.72 11.7575 14.72 11.2C14.72 10.8862 14.6075 10.6025 14.42 10.38C14.7912 10.1562 15.04 9.745 15.04 9.28C15.04 8.96625 14.9275 8.6825 14.74 8.46C15.1112 8.23625 15.36 7.825 15.36 7.36C15.36 6.65375 14.7862 6.08 14.08 6.08H9.4C9.595 5.4625 9.92 4.3575 9.92 3.84C9.92 2.635 9.0375 0.96 8.17 0.96H7.36ZM7.68 1.6H8.17C8.46375 1.6 9.28 2.71375 9.28 3.84C9.28 4.34125 8.8325 5.78625 8.66 6.3C8.62625 6.3975 8.64 6.50625 8.7 6.59C8.76 6.67375 8.8575 6.72 8.96 6.72H14.08C14.4325 6.72 14.72 7.0075 14.72 7.36C14.72 7.7125 14.4325 8 14.08 8H13.76C13.5825 8 13.44 8.1425 13.44 8.32C13.44 8.4975 13.5825 8.64 13.76 8.64C14.1125 8.64 14.4 8.9275 14.4 9.28C14.4 9.6325 14.1125 9.92 13.76 9.92H13.44C13.2625 9.92 13.12 10.0625 13.12 10.24C13.12 10.4175 13.2625 10.56 13.44 10.56C13.7925 10.56 14.08 10.8475 14.08 11.2C14.08 11.5525 13.7925 11.84 13.44 11.84H12.8C12.6225 11.84 12.48 11.9825 12.48 12.16C12.48 12.3375 12.6225 12.48 12.8 12.48C13.1525 12.48 13.44 12.7675 13.44 13.12C13.44 13.4725 13.1525 13.76 12.8 13.76H6.72C6.54375 13.76 6.4 13.6162 6.4 13.44C6.4 13.2625 6.25625 13.12 6.08 13.12H5.44V7.68H5.6C5.72125 7.68 5.835 7.60875 5.89 7.5L7.65 3.98C7.6725 3.93625 7.68 3.89 7.68 3.84V1.6ZM1.32 6.72H4.8V13.76H2.2L1.32 6.72Z" fill="#4F4F4F"/>
<path d="M1.32 6.72H4.8V13.76H2.2L1.32 6.72Z" fill="#DF4670"/>
<path d="M7.68266 1.59819H8.17266C8.46641 1.59819 9.28266 2.71194 9.28266 3.83819C9.28266 4.33944 8.83516 5.78444 8.66266 6.29819C8.62891 6.39569 8.64266 6.50444 8.70266 6.58819C8.76266 6.67194 8.86016 6.71819 8.96266 6.71819H14.0827C14.4352 6.71819 14.7227 7.00569 14.7227 7.35819C14.7227 7.71069 14.4352 7.99819 14.0827 7.99819H13.7627C13.5852 7.99819 13.4427 8.14069 13.4427 8.31819C13.4427 8.49569 13.5852 8.63819 13.7627 8.63819C14.1152 8.63819 14.4027 8.92569 14.4027 9.27819C14.4027 9.63069 14.1152 9.91819 13.7627 9.91819H13.4427C13.2652 9.91819 13.1227 10.0607 13.1227 10.2382C13.1227 10.4157 13.2652 10.5582 13.4427 10.5582C13.7952 10.5582 14.0827 10.8457 14.0827 11.1982C14.0827 11.5507 13.7952 11.8382 13.4427 11.8382H12.8027C12.6252 11.8382 12.4827 11.9807 12.4827 12.1582C12.4827 12.3357 12.6252 12.4782 12.8027 12.4782C13.1552 12.4782 13.4427 12.7657 13.4427 13.1182C13.4427 13.4707 13.1552 13.7582 12.8027 13.7582H6.72266C6.54641 13.7582 6.40266 13.6144 6.40266 13.4382C6.40266 13.2607 6.25891 13.1182 6.08266 13.1182H5.44266V7.67819H5.60266C5.72391 7.67819 5.83766 7.60694 5.89266 7.49819L7.65266 3.97819C7.67516 3.93444 7.68266 3.88819 7.68266 3.83819V1.59819Z" fill="#FBDCD2"/>
</svg>
